<svg xmlns="http://www.w3.org/2000/svg" xmlns:xlink="http://www.w3.org/1999/xlink" version="1.1" x="0px" y="0px" viewBox="0 0 100 125" enable-background="new 0 0 100 100" xml:space="preserve"><g><path fill="#000000" d="M50.043,7.425l8.049,11.814l0.533,0.783l0.92-0.226l6.377-1.562l-1.578,16.015l-0.345,3.497l2.615-2.348   l6.239-5.602l3.081,4.589l0.455,0.679l0.812-0.081l10.96-1.089l-1.919,12.403l-0.109,0.708l0.521,0.492l3.55,3.356L71.781,67.293   l-0.51,0.454l0.058,0.681l0.54,6.273l-15.698-0.765l-1.514-0.074l0.084,1.513l1.015,18.26H44.089l1.169-18.163l0.098-1.519   l-1.52,0.067l-15.72,0.689l0.472-6.125l0.051-0.67l-0.499-0.449L9.79,50.942l3.726-3.529l0.528-0.501l-0.121-0.718l-2.061-12.221   l10.604,1.011l0.791,0.075l0.457-0.651l3.256-4.651l6.601,5.74l2.677,2.328l-0.426-3.522l-1.945-16.075l6.676,1.572l0.913,0.215   l0.528-0.775L50.043,7.425 M50.043,5l-9.177,13.471l-8.579-2.021l2.18,18.017l-7.745-6.735l-4.126,5.894l-12.375-1.179   l2.356,13.976l-4.799,4.547L27.227,68.48l-0.589,7.66l17.258-0.757L42.633,95h14.565l-1.094-19.7l17.259,0.841l-0.674-7.829   l19.532-17.428l-4.63-4.378l2.189-14.144l-12.714,1.263l-3.956-5.894l-7.409,6.651L67.47,16.45l-8.25,2.021L50.043,5L50.043,5z"/></g><text x="0" y="115" fill="#000000" font-size="5px" font-weight="bold" font-family="'Helvetica Neue', Helvetica, Arial-Unicode, Arial, Sans-serif">Created by Franck Juncker / fjopus7</text><text x="0" y="120" fill="#000000" font-size="5px" font-weight="bold" font-family="'Helvetica Neue', Helvetica, Arial-Unicode, Arial, Sans-serif">from the Noun Project</text></svg>