<svg xmlns="http://www.w3.org/2000/svg" xmlns:xlink="http://www.w3.org/1999/xlink" version="1.1" x="0px" y="0px" viewBox="0 0 100 125" enable-background="new 0 0 100 100" xml:space="preserve"><g><path d="M22.295,30.17c0,0-8.622-6.287-5.826-12.936c1.604-3.815,5.134-7.046,9.494-6.831c4.934,0.244,6.606,4.383,7.739,8.539   C33.703,18.942,26.944,22.818,22.295,30.17z"/><path d="M66.727,24.139c0,0,4.728,4.679,6.915,12.948c0,0,11.213,1.549,11.812-7.874c0.6-9.424-8.004-11.486-12.613-10.119   C68.084,20.504,66.772,22.941,66.727,24.139z"/><path d="M20.353,36.684c-9.789,14.062-8.016,41.907,11.094,49.619c9.117,3.68,24.254,4.998,33.073,0.196   c6.449-3.508,10.448-11.523,11.524-18.096c0.444-2.709,0.914-5.322,0.952-8.06c0.027-1.977,0.042-6.647-1.081-8.935   c0,0-1.984-2.668-2.17,0.291c-0.518,8.285-1.304,17.588-10.548,22.032c-8.312,3.997-19.357,3.775-27.741-0.024   c-8.501-3.854-16.037-11.842-17.084-20.635c-0.67-5.625,1.364-10.127,3.053-15.307C21.926,36.229,21.022,35.722,20.353,36.684z"/><path d="M26.079,41.48c1.437-2.335,4.875-4.96,6.403-6.218c1.527-1.257,6.801-4.471,7.61,5.589   c0.808,10.06-6.198,13.833-7.995,13.744C30.3,54.505,21.587,52.079,26.079,41.48"/><path d="M54.168,43.804c0,0-3.735-5.749,0-8.084c3.737-2.336,6.123-2.503,10.445,2.886c4.321,5.389,4.07,11.129,1.914,13.643   c-2.155,2.515-7.364,3.104-9.521-2.042S54.168,43.804,54.168,43.804z"/><path d="M52.487,56.574c-0.27-2.965-1.078-4.223-5.4-4.312c-4.323-0.09-4.212,4.312-4.212,4.312c0,3.952,3.233,4.67,5.39,4.671   C50.421,61.245,52.757,59.538,52.487,56.574z"/></g><text x="0" y="115" fill="#000000" font-size="5px" font-weight="bold" font-family="'Helvetica Neue', Helvetica, Arial-Unicode, Arial, Sans-serif">Created by Zoé Chartier</text><text x="0" y="120" fill="#000000" font-size="5px" font-weight="bold" font-family="'Helvetica Neue', Helvetica, Arial-Unicode, Arial, Sans-serif">from the Noun Project</text></svg>