<svg xmlns:rdf="http://www.w3.org/1999/02/22-rdf-syntax-ns#" xmlns="http://www.w3.org/2000/svg" xmlns:cc="http://creativecommons.org/ns#" xmlns:dc="http://purl.org/dc/elements/1.1/" version="1.1" x="0px" y="0px" viewBox="0 0 100 125"><g transform="translate(0,-952.36218)"><path style="baseline-shift:baseline;block-progression:tb;color:#000000;direction:ltr;text-indent:0;enable-background:accumulate;text-transform:none;" fill="#000" d="m32.812,956.36c-6.5854,0-11.906,5.3596-11.906,11.938,0,1.8436,0.50128,3.5112,1.25,5.0625-4.5123,0.1064-8.125,3.7819-8.125,8.3125v1.4062c0,0.818,0.12458,1.6289,0.34375,2.375-0.4825,1.0576-0.78125,2.2329-0.78125,3.4688v51.125c0,4.6022,3.7753,8.3125,8.375,8.3125h43.656c4.5997,0,8.375-3.7103,8.375-8.3125v-10.875h7.0312c2.9663,0,5.375-2.4099,5.375-5.375v-22.906c0-2.965-2.4087-5.375-5.375-5.375h-7.0312v-6.5937c0-1.8909-0.62593-3.6601-1.6875-5.0625,0.0228-0.2506,0.0312-0.5247,0.0312-0.7813v-1.4062c0-4.5971-3.7391-8.3438-8.3438-8.3438h-0.125c-0.15623-6.9622-5.8429-12.562-12.844-12.562-2.8123,0-5.3781,0.9982-7.5,2.5313-1.9085-4.0619-5.9422-6.9375-10.719-6.9375zm0,1.6875c4.4255,0,8.1557,2.83,9.5938,6.75a0.85009,0.85009,0,0,0,1.375,0.3437c1.95-1.6585,4.4841-2.6562,7.25-2.6562,6.183,0,11.188,4.9511,11.188,11.125,0,0.095-0.0204,0.2866-0.0312,0.5312a0.85009,0.85009,0,0,0,0.84375,0.875h0.96875c3.6854,0,6.625,2.97,6.625,6.6563v1.4062c0,0.2304-0.009,0.4635-0.0312,0.6875a0.85009,0.85009,0,0,0,-0.0312,0.2188c-0.0273,0.2027-0.0488,0.4287-0.0937,0.625-0.009,0.041-0.0211,0.084-0.0312,0.125-0.06,0.2403-0.16489,0.4587-0.25,0.6875-0.0312,0.084-0.0593,0.1678-0.0937,0.25-0.0832,0.1985-0.14866,0.4059-0.25,0.5937-0.0998,0.185-0.22735,0.3576-0.34375,0.5313-0.0695,0.1033-0.1437,0.2135-0.21875,0.3125-0.0315,0.042-0.0613,0.084-0.0937,0.125-0.0228,0.029-0.0392,0.065-0.0625,0.094-0.0994,0.1206-0.20493,0.2307-0.3125,0.3438-0.02,0.021-0.0422,0.042-0.0625,0.062-0.16224,0.1661-0.35217,0.3205-0.53125,0.4687-0.16325,0.1345-0.32393,0.2565-0.5,0.375-0.25324,0.1717-0.504,0.3331-0.78125,0.4688-0.11534,0.057-0.22464,0.1063-0.34375,0.1562-0.42654,0.1784-0.87561,0.3196-1.3438,0.4063-0.13363,0.025-0.26978,0.014-0.40625,0.031-0.27558,0.034-0.55804,0.062-0.84375,0.062h-6.75a0.85009,0.85009,0,0,0,-0.40625,0.125,0.85009,0.85009,0,0,0,-0.0625,0.031,0.85009,0.85009,0,0,0,-0.375,0.6562,0.85009,0.85009,0,0,0,0,0.031v15.375c0,1.0389-0.71163,1.898-1.6875,2.0937-0.13941,0.028-0.28883,0.031-0.4375,0.031-1.1894,0-2.125-0.9377-2.125-2.125v-15.375a0.85009,0.85009,0,0,0,-0.0312,-0.25,0.85009,0.85009,0,0,0,-0.0312,-0.062,0.85009,0.85009,0,0,0,-0.0312,-0.094,0.85009,0.85009,0,0,0,-0.0625,-0.062,0.85009,0.85009,0,0,0,-0.46875,-0.3437,0.85009,0.85009,0,0,0,-0.21875,-0.031h-5.9062a0.85009,0.85009,0,0,0,-0.34375,0.062,0.85009,0.85009,0,0,0,-0.375,0.3125,0.85009,0.85009,0,0,0,-0.0625,0.094,0.85009,0.85009,0,0,0,-0.0312,0.062,0.85009,0.85009,0,0,0,-0.0312,0.094,0.85009,0.85009,0,0,0,-0.0312,0.2188v5.5937c0,1.039-0.71162,1.8981-1.6875,2.0938-0.13941,0.028-0.28882,0.031-0.4375,0.031-1.1894,0-2.125-0.9376-2.125-2.125v-5.5937a0.85009,0.85009,0,0,0,-0.0312,-0.25,0.85009,0.85009,0,0,0,-0.0312,-0.062,0.85009,0.85009,0,0,0,-0.0312,-0.094,0.85009,0.85009,0,0,0,-0.0625,-0.062,0.85009,0.85009,0,0,0,-0.46875,-0.3437,0.85009,0.85009,0,0,0,-0.21875,-0.031h-7.7812a0.85009,0.85009,0,0,0,-0.34375,0.062,0.85009,0.85009,0,0,0,-0.375,0.3125,0.85009,0.85009,0,0,0,-0.0625,0.094,0.85009,0.85009,0,0,0,-0.0312,0.062,0.85009,0.85009,0,0,0,-0.0312,0.094,0.85009,0.85009,0,0,0,-0.0312,0.2188v10.594c0,1.039-0.71162,1.8981-1.6875,2.0938-0.13941,0.028-0.28883,0.031-0.4375,0.031-0.14868,0-0.2998,0-0.4375-0.031-0.96392-0.1935-1.625-1.0439-1.625-2.0938v-10.594a0.85009,0.85009,0,0,0,-0.875,-0.8438h-3.375c-0.23065,0-0.46352-0.01-0.6875-0.031h-0.0937c-0.17094-0.02-0.3336-0.062-0.5-0.094h-0.0625c-0.21628-0.044-0.41745-0.092-0.625-0.1562-0.0944-0.029-0.1888-0.06-0.28125-0.094-0.26999-0.098-0.52957-0.2129-0.78125-0.3437-0.041-0.021-0.0845-0.04-0.125-0.062-0.21317-0.1156-0.4273-0.2686-0.625-0.4063-0.0806-0.057-0.17214-0.096-0.25-0.1562-0.22636-0.1736-0.42364-0.3612-0.625-0.5625-0.23725-0.2382-0.45715-0.5091-0.65625-0.7813-0.0536-0.073-0.10561-0.1432-0.15625-0.2187-0.1375-0.205-0.26035-0.4046-0.375-0.625-0.15687-0.3016-0.2957-0.6423-0.40625-0.9688a0.85009,0.85009,0,0,0,-0.0625,-0.125c-0.003-0.01,0.003-0.022,0-0.031-0.18473-0.616-0.28125-1.288-0.28125-1.9688v-1.4062c0-3.6863,2.9084-6.6563,6.5938-6.6563h1.0938a0.85009,0.85009,0,0,0,0.71875,-1.3125c-1-1.5832-1.5625-3.3978-1.5625-5.4062,0-5.6633,4.5532-10.25,10.219-10.25zm38.875,28.281c0.35424,0.8045,0.625,1.6587,0.625,2.5938v7.3125a0.85009,0.85009,0,0,0,0,0.125v31.969a0.85009,0.85009,0,0,0,0,0.094v11.625c0,3.6814-2.9971,6.5937-6.6875,6.5937h-43.656c-3.6904,0-6.6562-2.9123-6.6562-6.5937v-51.125c0-0.3702,0.17664-0.6799,0.25-1.0313,0.17658,0.249,0.39146,0.4913,0.59375,0.7188,0.21631,0.2433,0.44424,0.4711,0.6875,0.6875,0.2534,0.2254,0.50142,0.4316,0.78125,0.625,0.24393,0.1685,0.48803,0.3266,0.75,0.4687,0.0282,0.016,0.0653,0.016,0.0937,0.031,0.28306,0.1493,0.57366,0.2898,0.875,0.4062,0.29367,0.1135,0.59742,0.2012,0.90625,0.2813,0.022,0.01,0.0404,0.026,0.0625,0.031h0.0312c0.31469,0.078,0.64094,0.1469,0.96875,0.1875,0.33992,0.042,0.67971,0.062,1.0312,0.062h2.5312v9.75c0,2.0902,1.678,3.8125,3.7812,3.8125s3.8438-1.7098,3.8438-3.8125v-9.75h6.0938v4.75c0,2.1027,1.7092,3.8125,3.8125,3.8125s3.8438-1.7098,3.8438-3.8125v-4.75h4.2188v14.531c0,2.1027,1.7092,3.8125,3.8125,3.8125s3.8438-1.7098,3.8438-3.8125v-14.531h5.875c0.28453,0,0.56777,0,0.84375-0.031,0.14512-0.015,0.29465-0.041,0.4375-0.062h0.0312c0.34418-0.054,0.67107-0.1551,1-0.25,0.0928-0.027,0.1898-0.033,0.28125-0.062,0.35743-0.1168,0.69682-0.2757,1.0312-0.4375,1.8115-0.8764,3.2733-2.3622,4.0625-4.2188zm2.3125,10.875,7.0312,0c2.0521,0,3.6875,1.6382,3.6875,3.6875v22.906c0,2.0493-1.6354,3.6875-3.6875,3.6875h-7.0312v-30.281z"/></g><text x="0" y="115" fill="#000000" font-size="5px" font-weight="bold" font-family="'Helvetica Neue', Helvetica, Arial-Unicode, Arial, Sans-serif">Created by Artdabana@Design</text><text x="0" y="120" fill="#000000" font-size="5px" font-weight="bold" font-family="'Helvetica Neue', Helvetica, Arial-Unicode, Arial, Sans-serif">from the Noun Project</text></svg>